<svg xmlns="http://www.w3.org/2000/svg" viewBox="0 0 228.17 40.16"><defs><style>.cls-1{fill:#181878;}</style></defs><g id="レイヤー_2" data-name="レイヤー 2"><g id="レイヤー_1-2" data-name="レイヤー 1"><path class="cls-1" d="M5.65,20.74A42.81,42.81,0,0,0,5.9,25.2a10.91,10.91,0,0,0-1.33-.07H1.33A11,11,0,0,0,0,25.2c.1-1.49.17-3,.22-4.55s.07-3.32.07-5.31v-4.9c0-2,0-3.76-.07-5.31S.1,2,0,.47C.41.52.85.56,1.33.59S2.35.65,3,.65,4.09.63,4.57.59,5.5.52,5.9.47a26.19,26.19,0,0,0-.23,3.24c0,1.44,0,3,0,4.79V12c.81-1,1.69-2,2.62-3.15s1.84-2.25,2.7-3.33,1.65-2.07,2.34-3,1.2-1.58,1.52-2c.33.05.67.09,1,.12a8.68,8.68,0,0,0,1,.06,9,9,0,0,0,1-.06L19,.47c-.41.41-1,1.07-1.87,2s-1.73,1.89-2.68,3S12.56,7.48,11.7,8.48s-1.54,1.78-2,2.36c.77,1.17,1.62,2.47,2.56,3.88s1.87,2.81,2.79,4.16,1.78,2.61,2.57,3.75,1.43,2,1.91,2.57c-.69-.05-1.32-.07-1.87-.07H14.45c-.51,0-1,0-1.56.07-1.23-1.82-2.43-3.68-3.6-5.56S6.91,15.88,5.69,14H5.62C5.62,16.62,5.63,18.86,5.65,20.74Z"/><path class="cls-1" d="M20.66,12.89a12.72,12.72,0,0,1,1-5,12.54,12.54,0,0,1,2.79-4.1A12.86,12.86,0,0,1,28.8,1a15.41,15.41,0,0,1,5.69-1,17.45,17.45,0,0,1,5.36.79,12.11,12.11,0,0,1,4.32,2.38,10.94,10.94,0,0,1,2.9,4,14,14,0,0,1,1.06,5.67,12.47,12.47,0,0,1-1,5A12.87,12.87,0,0,1,44.26,22a13,13,0,0,1-4.34,2.72,15.42,15.42,0,0,1-5.54,1A20,20,0,0,1,29,25a11.52,11.52,0,0,1-4.35-2.27,11,11,0,0,1-2.94-4A14.25,14.25,0,0,1,20.66,12.89Zm21.57-.79a14,14,0,0,0-.58-4.2,9.73,9.73,0,0,0-1.6-3.15,7.06,7.06,0,0,0-2.48-2,7.41,7.41,0,0,0-3.19-.7,6.3,6.3,0,0,0-3.29.88,7.74,7.74,0,0,0-2.47,2.4,11.63,11.63,0,0,0-1.53,3.54,17.38,17.38,0,0,0-.52,4.34,16.58,16.58,0,0,0,.61,4.86,8.8,8.8,0,0,0,1.66,3.19A6.15,6.15,0,0,0,31.25,23a7.76,7.76,0,0,0,2.88.54,7.18,7.18,0,0,0,3.09-.68,7,7,0,0,0,2.58-2.09,10.87,10.87,0,0,0,1.76-3.56A17.25,17.25,0,0,0,42.23,12.1Z"/><path class="cls-1" d="M62.93,7.63c0-1.65,0-3-.07-4.17s-.09-2.13-.11-3a9.64,9.64,0,0,0,1.62.18A9.64,9.64,0,0,0,66,.47Q69.91,4.82,73.75,9t7.86,8.56V11c0-1.18,0-2.33,0-3.47s0-2.19,0-3.15,0-1.79-.07-2.49a12.06,12.06,0,0,0-.13-1.4A9.64,9.64,0,0,0,83,.65,9.64,9.64,0,0,0,84.6.47c-.12,2.18-.22,4.16-.29,5.92s-.13,3.43-.18,5S84.05,14.48,84,16s0,3.15,0,4.88V25.2a14.19,14.19,0,0,0-1.47-.07,11.85,11.85,0,0,0-1.41.07Q73.73,16.56,65.41,7.81c0,.7,0,1.39,0,2.09s0,1.4,0,2.12V16.2c0,1.44,0,2.66,0,3.67s0,1.86,0,2.56,0,1.26.07,1.71,0,.8.08,1.06a5.1,5.1,0,0,0-.87-.07h-.83c-.55,0-1.1,0-1.65.07a18.75,18.75,0,0,0,.18-2.05c.07-1.18.15-2.61.23-4.3s.16-3.53.22-5.51S62.93,9.46,62.93,7.63Z"/><path class="cls-1" d="M101.59,25.67a17.86,17.86,0,0,1-4.3-.49,9,9,0,0,1-3.47-1.62,7.87,7.87,0,0,1-2.33-2.91,10.15,10.15,0,0,1-.84-4.34c0-1,0-1.82,0-2.58s0-1.45,0-2.1,0-1.27,0-1.87,0-1.23,0-1.88c0-1.94,0-3.51,0-4.71s-.06-2.1-.1-2.7q.72.08,1.47.12c.51,0,1,.06,1.48.06s1,0,1.47-.06,1-.07,1.48-.12C96.24,2.8,96.1,5,96.05,7S96,11,96,13.07a24.38,24.38,0,0,0,.46,5.29,7.43,7.43,0,0,0,1.39,3.11,4.3,4.3,0,0,0,2.25,1.46,12,12,0,0,0,3.1.36,4.94,4.94,0,0,0,3.38-1.08,6.65,6.65,0,0,0,1.85-2.88,15.47,15.47,0,0,0,.78-4.12c.09-1.55.14-3.16.14-4.84s0-3.31-.07-4.95-.12-3.3-.22-4.95l1,.12a6.79,6.79,0,0,0,.86.06,6.58,6.58,0,0,0,.9-.06l.9-.12c-.05.53-.1,1.23-.14,2.12s-.1,1.92-.15,3.08-.09,2.45-.12,3.85-.06,2.89-.06,4.45c0,4.17-.9,7.17-2.7,9S105.07,25.67,101.59,25.67Z"/><path class="cls-1" d="M120.64,17.14q-.3,4-.58,8.06a5.07,5.07,0,0,0-.86-.07h-1.68a5,5,0,0,0-.85.07q1.15-6.19,2.06-12.31T120.38.47l.74.12a4.27,4.27,0,0,0,.74.06,4.08,4.08,0,0,0,.68-.06l.76-.12c.65,1.44,1.32,2.9,2,4.39l2.13,4.45c.71,1.47,1.41,2.92,2.12,4.33s1.39,2.76,2,4q2.16-4,4.3-8.45c1.42-2.94,2.79-5.86,4.08-8.76a8.11,8.11,0,0,0,1.55.18,7.91,7.91,0,0,0,1.51-.18q.36,3.09.78,6.66c.27,2.37.54,4.7.81,7s.52,4.39.79,6.36.5,3.55.72,4.75a14.13,14.13,0,0,0-1.46-.07h-2.93c-.51,0-1,0-1.52.07-.12-2.47-.31-5.15-.59-8s-.56-5.73-.84-8.57h-.08q-2,4.26-4,8.36t-3.92,8.24l-.34-.05a2,2,0,0,0-.35,0,1.88,1.88,0,0,0-.34,0l-.34.05q-1.95-4-3.87-8.06t-4-8.18h-.07Q120.93,13.1,120.64,17.14Z"/><path class="cls-1" d="M170.93,25.2c-.58-.05-1.13-.07-1.64-.07h-3.06c-.52,0-1,0-1.53.07-.38-1.18-.78-2.38-1.19-3.6s-.84-2.45-1.3-3.67c-.76,0-1.53,0-2.3-.06h-4.17l-1.88.06c-.48,1.22-.92,2.45-1.33,3.67s-.78,2.42-1.11,3.6a5,5,0,0,0-.85-.07h-1.71a6.41,6.41,0,0,0-.94.07c.29-.62.67-1.49,1.16-2.59s1-2.35,1.58-3.75,1.19-2.88,1.85-4.48,1.32-3.21,2-4.84l1.95-4.82c.63-1.59,1.22-3.06,1.74-4.43l.69.12a3.66,3.66,0,0,0,.68.06,3.85,3.85,0,0,0,.69-.06l.68-.12q1.16,3.06,2.46,6.55c.88,2.33,1.76,4.61,2.65,6.86s1.75,4.37,2.59,6.39S170.23,23.81,170.93,25.2Zm-12.75-18q-.93,2.16-1.76,4.26c-.55,1.41-1.09,2.84-1.62,4.3h6.59c-.53-1.46-1-2.89-1.57-4.3S158.76,8.68,158.18,7.24Z"/><path class="cls-1" d="M175,7.63c0-1.65,0-3-.07-4.17s-.09-2.13-.11-3a9.64,9.64,0,0,0,1.62.18A9.64,9.64,0,0,0,178,.47q3.91,4.35,7.76,8.57c2.55,2.8,5.18,5.66,7.86,8.56V11c0-1.18,0-2.33,0-3.47s0-2.19,0-3.15,0-1.79-.07-2.49a12.06,12.06,0,0,0-.13-1.4A9.64,9.64,0,0,0,195,.65a9.64,9.64,0,0,0,1.62-.18c-.12,2.18-.21,4.16-.29,5.92s-.13,3.43-.18,5-.08,3.1-.09,4.62,0,3.15,0,4.88V25.2a14.19,14.19,0,0,0-1.47-.07,11.85,11.85,0,0,0-1.41.07q-7.41-8.64-15.73-17.39c0,.7,0,1.39-.05,2.09s0,1.4,0,2.12V16.2c0,1.44,0,2.66,0,3.67s0,1.86.05,2.56.05,1.26.07,1.71.05.8.08,1.06a5.1,5.1,0,0,0-.87-.07h-.83c-.55,0-1.1,0-1.65.07a18.75,18.75,0,0,0,.18-2.05c.07-1.18.15-2.61.23-4.3s.16-3.53.22-5.51S175,9.46,175,7.63Z"/><path class="cls-1" d="M200.7,12.89a12.72,12.72,0,0,1,1-5,12.54,12.54,0,0,1,2.79-4.1A12.81,12.81,0,0,1,208.83,1a15.45,15.45,0,0,1,5.69-1,17.56,17.56,0,0,1,5.37.79,12.28,12.28,0,0,1,4.32,2.38,10.92,10.92,0,0,1,2.89,4,14,14,0,0,1,1.07,5.67,12.48,12.48,0,0,1-1,5A12.69,12.69,0,0,1,224.3,22,13.05,13.05,0,0,1,220,24.7a15.46,15.46,0,0,1-5.54,1,20,20,0,0,1-5.35-.7,11.57,11.57,0,0,1-4.36-2.27,11.09,11.09,0,0,1-2.93-4A14.25,14.25,0,0,1,200.7,12.89Zm21.56-.79a14.32,14.32,0,0,0-.57-4.2,9.75,9.75,0,0,0-1.61-3.15,7.06,7.06,0,0,0-2.48-2,7.33,7.33,0,0,0-3.18-.7,6.31,6.31,0,0,0-3.3.88,8,8,0,0,0-2.47,2.4,11.63,11.63,0,0,0-1.53,3.54,17.86,17.86,0,0,0-.52,4.34,16.93,16.93,0,0,0,.61,4.86,8.8,8.8,0,0,0,1.66,3.19A6.23,6.23,0,0,0,211.28,23a7.76,7.76,0,0,0,2.88.54,7.25,7.25,0,0,0,3.1-.68,7,7,0,0,0,2.57-2.09,11.07,11.07,0,0,0,1.77-3.56A17.61,17.61,0,0,0,222.26,12.1Z"/><path class="cls-1" d="M.73,34.24c0-.78,0-1.47,0-2.07s0-1.21-.09-1.81l.52.05.63,0c.33,0,.66,0,1,0l1,0a6.34,6.34,0,0,1,1.56.15,2.19,2.19,0,0,1,.88.42,2.46,2.46,0,0,1,.66.81,2.54,2.54,0,0,1,.21,1.08,3.19,3.19,0,0,1-.27,1.37,2.31,2.31,0,0,1-.75.93A3.16,3.16,0,0,1,5,35.65a5.92,5.92,0,0,1-1.44.17H2.81c0,.7,0,1.4,0,2.09s0,1.38.09,2.07a4.17,4.17,0,0,0-.52,0H1.14a4.17,4.17,0,0,0-.52,0q.06-.87.09-1.77c0-.61,0-1.29,0-2.07Zm4.18-1.19a2.88,2.88,0,0,0-.12-.9,1.47,1.47,0,0,0-.33-.58A1.16,1.16,0,0,0,4,31.25a1.79,1.79,0,0,0-.57-.09H2.83c0,.67,0,1.33,0,2v2A3.65,3.65,0,0,0,3.53,35a1.75,1.75,0,0,0,.68-.28,1.61,1.61,0,0,0,.5-.63A2.49,2.49,0,0,0,4.91,33.05Z"/><path class="cls-1" d="M26.37,35.19a5.1,5.1,0,0,1,.38-1.95,4.85,4.85,0,0,1,1.09-1.59,4.9,4.9,0,0,1,1.69-1.08,6,6,0,0,1,2.21-.39,7,7,0,0,1,2.09.3,4.91,4.91,0,0,1,1.68.93A4.3,4.3,0,0,1,36.64,33a5.54,5.54,0,0,1,.41,2.2,4.74,4.74,0,0,1-.4,2,4.8,4.8,0,0,1-1.11,1.59,4.86,4.86,0,0,1-1.68,1.06,6,6,0,0,1-2.16.38,7.75,7.75,0,0,1-2.08-.27A4.49,4.49,0,0,1,27.93,39a4.2,4.2,0,0,1-1.14-1.55A5.53,5.53,0,0,1,26.37,35.19Zm8.38-.31a5.45,5.45,0,0,0-.22-1.63A4,4,0,0,0,33.91,32a2.79,2.79,0,0,0-1-.77A2.86,2.86,0,0,0,31.7,31a2.44,2.44,0,0,0-1.28.35,3,3,0,0,0-1,.93,4.33,4.33,0,0,0-.59,1.38,6.5,6.5,0,0,0-.21,1.68,6.39,6.39,0,0,0,.24,1.89,3.23,3.23,0,0,0,.65,1.24,2.33,2.33,0,0,0,.93.68,3.05,3.05,0,0,0,1.12.21,3,3,0,0,0,1.21-.26,2.77,2.77,0,0,0,1-.82,4.24,4.24,0,0,0,.68-1.38A6.53,6.53,0,0,0,34.75,34.88Z"/><path class="cls-1" d="M59.34,35.57v.57c0,.78,0,1.46,0,2.07s0,1.19.08,1.77a4.17,4.17,0,0,0-.52,0H57.67a4.17,4.17,0,0,0-.52,0q.06-.87.09-1.77c0-.61,0-1.29,0-2.07v-1.9q0-1.17,0-2.07c0-.6-.05-1.21-.09-1.81l.52.05.63,0c.25,0,.54,0,.86,0s.72,0,1.2,0,.66,0,.91,0a5,5,0,0,1,.65.08,2.72,2.72,0,0,1,.48.15,2.82,2.82,0,0,1,.38.21,2.36,2.36,0,0,1,.67.77,2.27,2.27,0,0,1,.24,1.08,2.48,2.48,0,0,1-.56,1.67,3.06,3.06,0,0,1-1.61.91q.67,1.18,1.44,2.37L64.5,40l-.63,0H62.61c-.21,0-.43,0-.64,0l-2.51-4.41ZM61.55,33a2.9,2.9,0,0,0-.13-1,1.07,1.07,0,0,0-.38-.55,1.45,1.45,0,0,0-.67-.25,9.31,9.31,0,0,0-1-.05c0,1.27,0,2.53,0,3.8l.16,0h.15a1.91,1.91,0,0,0,1.41-.49A2.08,2.08,0,0,0,61.55,33Z"/><path class="cls-1" d="M85.94,31.9a2.77,2.77,0,0,0,0-.49h-.52l-.66,0-.71.05-.67.08c0-.1,0-.2.05-.31a3,3,0,0,0,0-.31c0-.1,0-.2,0-.3s0-.21-.05-.31l.86,0,.78,0h4l.76,0,.8,0c0,.1,0,.2-.05.31s0,.2,0,.3a3,3,0,0,0,0,.31c0,.11,0,.21.05.31l-.63-.08-.69-.05-.65,0h-.52a.92.92,0,0,0,0,.19c0,.09,0,.19,0,.3v4.24c0,.78,0,1.46,0,2.07s0,1.19.09,1.77a4.28,4.28,0,0,0-.52,0H86.36a4.17,4.17,0,0,0-.52,0c0-.58.06-1.17.08-1.77s0-1.29,0-2.07v-3.5C86,32.37,86,32.12,85.94,31.9Z"/><path class="cls-1" d="M110.41,32.17c0-.6,0-1.21-.08-1.81l1.24,0c.41,0,.83,0,1.25,0l1.84,0c.54,0,.9,0,1.08-.05a3,3,0,0,0,0,.59,3.44,3.44,0,0,0,0,.35c0,.08,0,.17,0,.28l-.89-.06-.93-.06-.82,0h-.52c0,.51-.06,1-.06,1.52s0,1,0,1.53l1.64,0,1.54-.07q0,.24-.06.36a2.44,2.44,0,0,0,0,.27.93.93,0,0,0,0,.23c0,.08,0,.19,0,.34q-1.6-.12-3.18-.12v.71c0,.78,0,1.46,0,2.07s0,1.19.08,1.77a4.17,4.17,0,0,0-.52,0h-1.26a4,4,0,0,0-.51,0c0-.58.06-1.17.08-1.77s0-1.29,0-2.07v-1.9Q110.44,33.07,110.41,32.17Z"/><path class="cls-1" d="M135.29,35.19a5.1,5.1,0,0,1,.38-1.95,4.85,4.85,0,0,1,1.09-1.59,4.9,4.9,0,0,1,1.69-1.08,6,6,0,0,1,2.21-.39,7,7,0,0,1,2.09.3,4.91,4.91,0,0,1,1.68.93A4.3,4.3,0,0,1,145.56,33a5.54,5.54,0,0,1,.41,2.2,4.74,4.74,0,0,1-.4,2,4.8,4.8,0,0,1-1.11,1.59,4.86,4.86,0,0,1-1.68,1.06,6,6,0,0,1-2.16.38,7.75,7.75,0,0,1-2.08-.27,4.49,4.49,0,0,1-1.69-.89,4.2,4.2,0,0,1-1.14-1.55A5.53,5.53,0,0,1,135.29,35.19Zm8.38-.31a5.45,5.45,0,0,0-.22-1.63,4,4,0,0,0-.62-1.23,2.79,2.79,0,0,0-1-.77,2.86,2.86,0,0,0-1.24-.28,2.44,2.44,0,0,0-1.28.35,3,3,0,0,0-1,.93,4.33,4.33,0,0,0-.59,1.38,6.5,6.5,0,0,0-.21,1.68,6.39,6.39,0,0,0,.24,1.89,3.23,3.23,0,0,0,.65,1.24,2.33,2.33,0,0,0,.93.68,3.05,3.05,0,0,0,1.12.21,3,3,0,0,0,1.21-.26,2.77,2.77,0,0,0,1-.82,4.45,4.45,0,0,0,.69-1.38A6.88,6.88,0,0,0,143.67,34.88Z"/><path class="cls-1" d="M166.16,32.17c0-.6,0-1.21-.09-1.81l.52.05.63,0,.63,0,.52-.05c0,.6-.07,1.21-.08,1.81s0,1.29,0,2.07v3.44c0,.5,0,.92,0,1.29.53,0,1.06,0,1.59,0s1.07-.08,1.61-.14c0,.1,0,.19,0,.28a3.33,3.33,0,0,0,0,.35,3.44,3.44,0,0,0,0,.35,1.12,1.12,0,0,0,0,.21l-.93,0h-4.21l-.28,0q.06-.87.09-1.77c0-.61,0-1.29,0-2.07v-1.9Q166.19,33.07,166.16,32.17Z"/><path class="cls-1" d="M191.69,32.17c0-.6,0-1.21-.08-1.81l.52.05.63,0,.63,0,.52-.05c0,.6-.07,1.21-.09,1.81s0,1.29,0,2.07v1.9c0,.78,0,1.46,0,2.07s.05,1.19.09,1.77a4.28,4.28,0,0,0-.52,0h-1.26a4.17,4.17,0,0,0-.52,0c0-.58.06-1.17.08-1.77s0-1.29,0-2.07v-1.9Q191.72,33.07,191.69,32.17Z"/><path class="cls-1" d="M214.05,35.19a4.92,4.92,0,0,1,.39-1.95,4.67,4.67,0,0,1,1.08-1.59,5,5,0,0,1,1.7-1.08,6,6,0,0,1,2.21-.39,7,7,0,0,1,2.08.3,4.74,4.74,0,0,1,1.68.93A4.3,4.3,0,0,1,224.32,33a5.37,5.37,0,0,1,.41,2.2,4.9,4.9,0,0,1-.39,2,5,5,0,0,1-1.11,1.59,4.81,4.81,0,0,1-1.69,1.06,6,6,0,0,1-2.15.38,7.75,7.75,0,0,1-2.08-.27,4.53,4.53,0,0,1-1.7-.89,4.2,4.2,0,0,1-1.14-1.55A5.53,5.53,0,0,1,214.05,35.19Zm8.39-.31a5.44,5.44,0,0,0-.23-1.63,3.74,3.74,0,0,0-.62-1.23,2.82,2.82,0,0,0-2.2-1.05,2.39,2.39,0,0,0-1.28.35,3,3,0,0,0-1,.93,4.34,4.34,0,0,0-.6,1.38,7,7,0,0,0-.2,1.68,6.39,6.39,0,0,0,.24,1.89,3.22,3.22,0,0,0,.64,1.24,2.3,2.3,0,0,0,.94.68,3,3,0,0,0,1.12.21,2.91,2.91,0,0,0,1.2-.26,2.61,2.61,0,0,0,1-.82,4.05,4.05,0,0,0,.69-1.38A6.86,6.86,0,0,0,222.44,34.88Z"/></g></g></svg>